<svg version="1.1" viewBox="0.0 0.0 480.0 345.6010498687664" fill="none" stroke="none" stroke-linecap="square" stroke-miterlimit="10" xmlns:xlink="http://www.w3.org/1999/xlink" xmlns="http://www.w3.org/2000/svg"><clipPath id="p.0"><path d="m0 0l480.0 0l0 345.60104l-480.0 0l0 -345.60104z" clip-rule="nonzero"/></clipPath><g clip-path="url(#p.0)"><path fill="#000000" fill-opacity="0.0" d="m0 0l480.0 0l0 345.60104l-480.0 0z" fill-rule="evenodd"/><path fill="#ffffff" d="m225.38142 27.460062l29.237152 0l0 0c9.58226 0 18.772049 3.8065357 25.547714 10.582209c6.7756653 6.7756767 10.582214 15.965462 10.582214 25.547714l0 36.129917c0 4.7302246E-4 -3.9672852E-4 8.468628E-4 -8.544922E-4 8.468628E-4l-101.496155 -8.468628E-4l0 0c-4.5776367E-4 0 -8.392334E-4 -3.7384033E-4 -8.392334E-4 -8.392334E-4l8.392334E-4 -36.129078l0 0c0 -19.954006 16.175919 -36.12992 36.12993 -36.12992z" fill-rule="evenodd"/><path fill="#ffffff" d="m225.62712 272.75644l0 0c-52.25049 -0.359375 -94.36981 -43.324753 -94.19185 -96.08391c0.177948 -52.759163 42.586136 -95.43387 94.837845 -95.43387z" fill-rule="evenodd"/><path fill="#ffffff" d="m254.37288 272.75644l0 0c52.250504 -0.359375 94.3698 -43.324753 94.19185 -96.08391c-0.177948 -52.759163 -42.58615 -95.43387 -94.837845 -95.43387z" fill-rule="evenodd"/><path fill="#ffffff" d="m209.64735 73.67756l52.3976 0l0 115.49009l-52.3976 0z" fill-rule="evenodd"/><path fill="#ffffff" d="m79.073425 81.24128l80.46329 -81.24519l0 29.932356l-49.053642 49.53032l49.053642 49.530327l0 33.49739z" fill-rule="evenodd"/><path fill="#ffffff" d="m400.92657 81.24128l-80.46329 -81.24519l0 29.932356l49.05365 49.53032l-49.05365 49.530327l0 33.49739z" fill-rule="evenodd"/><path fill="#ffffff" d="m79.073425 264.35977l80.46329 -81.24521l0 29.932358l-49.053642 49.53032l49.053642 49.530334l0 33.497375z" fill-rule="evenodd"/><path fill="#ffffff" d="m400.92657 264.35977l-80.46329 -81.24521l0 29.932358l49.05365 49.53032l-49.05365 49.530334l0 33.497375z" fill-rule="evenodd"/><path fill="#ffffff" d="m299.63425 185.02046l152.40533 -47.6817l27.968262 13.667313l-193.0061 60.384094z" fill-rule="evenodd"/><path fill="#ffffff" d="m180.36575 185.02046l-152.40535 -47.6817l-27.96825 13.667313l193.0061 60.384094z" fill-rule="evenodd"/></g></svg>