<svg version="1.1" viewBox="0.0 0.0 657.6010498687664 532.8005249343832" fill="none" stroke="none" stroke-linecap="square" stroke-miterlimit="10" xmlns:xlink="http://www.w3.org/1999/xlink" xmlns="http://www.w3.org/2000/svg"><clipPath id="p.0"><path d="m0 0l657.6011 0l0 532.80054l-657.6011 0l0 -532.80054z" clip-rule="nonzero"/></clipPath><g clip-path="url(#p.0)"><path fill="#000000" fill-opacity="0.0" d="m0 0l657.6011 0l0 532.80054l-657.6011 0z" fill-rule="evenodd"/><path fill="#ffffff" d="m6.4986877 222.78346l0 0c0 -53.019333 42.980663 -96.0 96.0 -96.0l0 0c25.460785 0 49.878754 10.114258 67.88225 28.117752c18.003494 18.003494 28.117752 42.421463 28.117752 67.88225l0 0c0 53.019333 -42.980667 96.000015 -96.0 96.000015l0 0c-53.019337 0 -96.0 -42.980682 -96.0 -96.000015zm48.0 0l0 0c0 26.509674 21.490334 48.000015 48.0 48.000015c26.509674 0 48.0 -21.490341 48.0 -48.000015c0 -26.509659 -21.490326 -48.0 -48.0 -48.0l0 0c-26.509666 0 -48.0 21.490341 -48.0 48.0z" fill-rule="evenodd"/><path fill="#ffffff" d="m198.49869 222.78346l0 0c0 -53.019333 42.980667 -96.0 96.0 -96.0l0 0c25.460785 0 49.878754 10.114258 67.88226 28.117752c18.003479 18.003494 28.117737 42.421463 28.117737 67.88225l0 0c0 53.019333 -42.98065 96.000015 -96.0 96.000015l0 0c-53.019333 0 -96.0 -42.980682 -96.0 -96.000015zm48.0 0l0 0c0 26.509674 21.490326 48.000015 48.0 48.000015c26.509674 0 48.0 -21.490341 48.0 -48.000015c0 -26.509659 -21.490326 -48.0 -48.0 -48.0l0 0c-26.509674 0 -48.0 21.490341 -48.0 48.0z" fill-rule="evenodd"/><path fill="#ffffff" d="m390.4987 222.78346l0 0c0 -53.019333 42.98065 -96.0 96.0 -96.0l0 0c25.460785 0 49.878754 10.114258 67.88223 28.117752c18.00354 18.003494 28.117737 42.421463 28.117737 67.88225l0 0c0 53.019333 -42.98065 96.000015 -95.99997 96.000015l0 0c-53.01935 0 -96.0 -42.980682 -96.0 -96.000015zm48.0 0l0 0c0 26.509674 21.490326 48.000015 48.0 48.000015c26.509674 0 47.99997 -21.490341 47.99997 -48.000015c0 -26.509659 -21.490295 -48.0 -47.99997 -48.0l0 0c-26.509674 0 -48.0 21.490341 -48.0 48.0z" fill-rule="evenodd"/><path fill="#ffffff" d="m0.18372704 222.78346l0 0c0 -123.01599 131.30396 -222.74016 293.2756 -222.74016l0 0c161.97162 0 293.2756 99.72417 293.2756 222.74016l0 0c0 123.01601 -131.30399 222.74016 -293.2756 222.74016l0 0c-161.97163 0 -293.2756 -99.72415 -293.2756 -222.74016zm41.260387 0l0 0c0 100.2285 112.83105 181.47978 252.0152 181.47978c139.18414 0 252.01523 -81.25128 252.01523 -181.47978l0 0c0 -100.22851 -112.831085 -181.47977 -252.01523 -181.47977l0 0c-139.18416 0 -252.0152 81.25126 -252.0152 181.47977z" fill-rule="evenodd"/><path fill="#ffffff" d="m68.826775 137.73097l94.31759 32.0l24.419937 69.05249l27.790024 0l23.577438 -48.0l42.94751 -36.209976l59.79001 10.104996l21.05249 40.419937l9.262482 41.26509l38.73752 -4.2125854l22.737549 -66.52493l56.419952 -13.475067l53.05249 -5.0525055l-24.419922 -51.367447l-62.315002 -48.84252l-56.422546 -17.68504l-73.26248 -15.15748l-96.0 5.052494l-75.79002 16.84252l-59.79003 35.36745z" fill-rule="evenodd"/><path fill="#ffffff" d="m530.51166 311.2004l-94.3176 -32.0l-24.419952 -69.052475l-27.790009 0l-23.577454 47.999985l-42.94748 36.20999l-59.79004 -10.10498l-21.05249 -40.419968l-9.262466 -41.26509l-38.737534 4.2126007l-22.737534 66.52495l-56.419952 13.475067l-53.05249 5.05249l24.419945 51.36743l62.314964 48.84253l56.422577 17.685028l73.26245 15.157501l96.0 -5.05249l75.79004 -16.84253l59.79001 -35.367462z" fill-rule="evenodd"/><path fill="#ffffff" d="m306.3305 387.62427l201.44882 -34.2677l97.82675 179.40155z" fill-rule="evenodd"/></g></svg>