<svg version="1.1" viewBox="0.0 0.0 384.0 307.1994750656168" fill="none" stroke="none" stroke-linecap="square" stroke-miterlimit="10" xmlns:xlink="http://www.w3.org/1999/xlink" xmlns="http://www.w3.org/2000/svg"><clipPath id="p.0"><path d="m0 0l384.0 0l0 307.19946l-384.0 0l0 -307.19946z" clip-rule="nonzero"/></clipPath><g clip-path="url(#p.0)"><path fill="#000000" fill-opacity="0.0" d="m0 0l384.0 0l0 307.19946l-384.0 0z" fill-rule="evenodd"/><path fill="#ffffff" d="m119.51412 269.09332l0 -98.87999l72.4824 98.87999z" fill-rule="evenodd"/><path stroke="#ffffff" stroke-width="1.0" stroke-linejoin="round" stroke-linecap="butt" d="m119.51412 269.09332l0 -98.87999l72.4824 98.87999z" fill-rule="evenodd"/><path fill="#ffffff" d="m264.4789 269.09332l0 -98.87999l-72.48239 98.87999z" fill-rule="evenodd"/><path stroke="#ffffff" stroke-width="1.0" stroke-linejoin="round" stroke-linecap="butt" d="m264.4789 269.09332l0 -98.87999l-72.48239 98.87999z" fill-rule="evenodd"/><path fill="#ffffff" d="m256.00076 145.81102l-64.000015 88.409454l-64.0 -88.409454z" fill-rule="evenodd"/><path stroke="#ffffff" stroke-width="1.0" stroke-linejoin="round" stroke-linecap="butt" d="m256.00076 145.81102l-64.000015 88.409454l-64.0 -88.409454z" fill-rule="evenodd"/><path fill="#ffffff" d="m-0.002262992 218.22835l0 0c0 -26.509674 21.490332 -48.0 48.0 -48.0l32.001507 0l0 0c12.730392 0 24.939377 5.057129 33.941124 14.058868c9.001747 9.001755 14.058876 21.21074 14.058876 33.94113l0 0l0 0c0 26.509674 -21.490334 47.999985 -48.0 47.999985l-32.001507 0c-26.509668 0 -48.0 -21.49031 -48.0 -47.999985z" fill-rule="evenodd"/><path stroke="#ffffff" stroke-width="1.0" stroke-linejoin="round" stroke-linecap="butt" d="m-0.002262992 218.22835l0 0c0 -26.509674 21.490332 -48.0 48.0 -48.0l32.001507 0l0 0c12.730392 0 24.939377 5.057129 33.941124 14.058868c9.001747 9.001755 14.058876 21.21074 14.058876 33.94113l0 0l0 0c0 26.509674 -21.490334 47.999985 -48.0 47.999985l-32.001507 0c-26.509668 0 -48.0 -21.49031 -48.0 -47.999985z" fill-rule="evenodd"/><path fill="#ffffff" d="m256.00076 218.22835l0 0c0 -26.509674 21.490326 -48.0 48.0 -48.0l32.001495 0l0 0c12.730408 0 24.939392 5.057129 33.94113 14.058868c9.0017395 9.001755 14.058868 21.21074 14.058868 33.94113l0 0l0 0c0 26.509674 -21.490326 47.999985 -48.0 47.999985l-32.001495 0c-26.509674 0 -48.0 -21.49031 -48.0 -47.999985z" fill-rule="evenodd"/><path stroke="#ffffff" stroke-width="1.0" stroke-linejoin="round" stroke-linecap="butt" d="m256.00076 218.22835l0 0c0 -26.509674 21.490326 -48.0 48.0 -48.0l32.001495 0l0 0c12.730408 0 24.939392 5.057129 33.94113 14.058868c9.0017395 9.001755 14.058868 21.21074 14.058868 33.94113l0 0l0 0c0 26.509674 -21.490326 47.999985 -48.0 47.999985l-32.001495 0c-26.509674 0 -48.0 -21.49031 -48.0 -47.999985z" fill-rule="evenodd"/><path fill="#ffffff" d="m44.910824 232.33858l74.60678 0l0 33.889755l-74.60678 0z" fill-rule="evenodd"/><path stroke="#ffffff" stroke-width="1.0" stroke-linejoin="round" stroke-linecap="butt" d="m44.910824 232.33858l74.60678 0l0 33.889755l-74.60678 0z" fill-rule="evenodd"/><path fill="#ffffff" d="m44.910824 170.22835l74.60678 0l0 33.889755l-74.60678 0z" fill-rule="evenodd"/><path stroke="#ffffff" stroke-width="1.0" stroke-linejoin="round" stroke-linecap="butt" d="m44.910824 170.22835l74.60678 0l0 33.889755l-74.60678 0z" fill-rule="evenodd"/><path fill="#ffffff" d="m264.4824 232.33858l74.60678 0l0 33.889755l-74.60678 0z" fill-rule="evenodd"/><path stroke="#ffffff" stroke-width="1.0" stroke-linejoin="round" stroke-linecap="butt" d="m264.4824 232.33858l74.60678 0l0 33.889755l-74.60678 0z" fill-rule="evenodd"/><path fill="#ffffff" d="m264.4824 170.22835l74.60678 0l0 33.889755l-74.60678 0z" fill-rule="evenodd"/><path stroke="#ffffff" stroke-width="1.0" stroke-linejoin="round" stroke-linecap="butt" d="m264.4824 170.22835l74.60678 0l0 33.889755l-74.60678 0z" fill-rule="evenodd"/><path fill="#ffffff" d="m-0.002262992 259.06824l0 0c0 -26.509659 21.490332 -48.0 48.0 -48.0l32.001507 0l0 0c12.730392 0 24.939377 5.057129 33.941124 14.058884c9.001747 9.0017395 14.058876 21.210724 14.058876 33.941116l0 0l0 0c0 26.509674 -21.490334 48.0 -48.0 48.0l-32.001507 0c-26.509668 0 -48.0 -21.490326 -48.0 -48.0z" fill-rule="evenodd"/><path stroke="#ffffff" stroke-width="1.0" stroke-linejoin="round" stroke-linecap="butt" d="m-0.002262992 259.06824l0 0c0 -26.509659 21.490332 -48.0 48.0 -48.0l32.001507 0l0 0c12.730392 0 24.939377 5.057129 33.941124 14.058884c9.001747 9.0017395 14.058876 21.210724 14.058876 33.941116l0 0l0 0c0 26.509674 -21.490334 48.0 -48.0 48.0l-32.001507 0c-26.509668 0 -48.0 -21.490326 -48.0 -48.0z" fill-rule="evenodd"/><path fill="#ffffff" d="m256.00076 259.06824l0 0c0 -26.509659 21.490326 -48.0 48.0 -48.0l32.001495 0l0 0c12.730408 0 24.939392 5.057129 33.94113 14.058884c9.0017395 9.0017395 14.058868 21.210724 14.058868 33.941116l0 0l0 0c0 26.509674 -21.490326 48.0 -48.0 48.0l-32.001495 0c-26.509674 0 -48.0 -21.490326 -48.0 -48.0z" fill-rule="evenodd"/><path stroke="#ffffff" stroke-width="1.0" stroke-linejoin="round" stroke-linecap="butt" d="m256.00076 259.06824l0 0c0 -26.509659 21.490326 -48.0 48.0 -48.0l32.001495 0l0 0c12.730408 0 24.939392 5.057129 33.94113 14.058884c9.0017395 9.0017395 14.058868 21.210724 14.058868 33.941116l0 0l0 0c0 26.509674 -21.490326 48.0 -48.0 48.0l-32.001495 0c-26.509674 0 -48.0 -21.490326 -48.0 -48.0z" fill-rule="evenodd"/><path fill="#ffffff" d="m63.578373 266.22833l275.50287 0l0 40.850403l-275.50287 0z" fill-rule="evenodd"/><path stroke="#ffffff" stroke-width="1.0" stroke-linejoin="round" stroke-linecap="butt" d="m63.578373 266.22833l275.50287 0l0 40.850403l-275.50287 0z" fill-rule="evenodd"/><path fill="#ffffff" d="m-0.002262992 217.80577l11.446259 0l0 40.850388l-11.446259 0z" fill-rule="evenodd"/><path stroke="#ffffff" stroke-width="1.0" stroke-linejoin="round" stroke-linecap="butt" d="m-0.002262992 217.80577l11.446259 0l0 40.850388l-11.446259 0z" fill-rule="evenodd"/><path fill="#ffffff" d="m372.556 217.80577l11.446259 0l0 45.889755l-11.446259 0z" fill-rule="evenodd"/><path stroke="#ffffff" stroke-width="1.0" stroke-linejoin="round" stroke-linecap="butt" d="m372.556 217.80577l11.446259 0l0 45.889755l-11.446259 0z" fill-rule="evenodd"/><path fill="#ffffff" d="m174.19685 0l35.62204 0l0 171.90552l-35.62204 0z" fill-rule="evenodd"/><path stroke="#ffffff" stroke-width="1.0" stroke-linejoin="round" stroke-linecap="butt" d="m174.19685 0l35.62204 0l0 171.90552l-35.62204 0z" fill-rule="evenodd"/></g></svg>