<svg version="1.1" viewBox="0.0 0.0 720.0 633.6010498687664" fill="none" stroke="none" stroke-linecap="square" stroke-miterlimit="10" xmlns:xlink="http://www.w3.org/1999/xlink" xmlns="http://www.w3.org/2000/svg"><clipPath id="p.0"><path d="m0 0l720.0 0l0 633.6011l-720.0 0l0 -633.6011z" clip-rule="nonzero"/></clipPath><g clip-path="url(#p.0)"><path fill="#000000" fill-opacity="0.0" d="m0 0l720.0 0l0 633.6011l-720.0 0z" fill-rule="evenodd"/><path fill="#ffffff" d="m228.03171 481.54834l0 0c0 -79.78351 59.081207 -144.46082 131.96161 -144.46082c72.88037 0 131.96158 64.67731 131.96158 144.46082l-65.980804 0c0 -43.343323 -29.540588 -78.48001 -65.980774 -78.48001c-36.440216 0 -65.980804 35.13669 -65.980804 78.48001z" fill-rule="evenodd"/><path stroke="#ffffff" stroke-width="3.0" stroke-linejoin="round" stroke-linecap="butt" d="m228.03171 481.54834l0 0c0 -79.78351 59.081207 -144.46082 131.96161 -144.46082c72.88037 0 131.96158 64.67731 131.96158 144.46082l-65.980804 0c0 -43.343323 -29.540588 -78.48001 -65.980774 -78.48001c-36.440216 0 -65.980804 35.13669 -65.980804 78.48001z" fill-rule="evenodd"/><path fill="#ffffff" d="m228.03171 480.70312l65.60559 0l0 152.89716l-65.60559 0z" fill-rule="evenodd"/><path stroke="#ffffff" stroke-width="3.0" stroke-linejoin="round" stroke-linecap="butt" d="m228.03171 480.70312l65.60559 0l0 152.89716l-65.60559 0z" fill-rule="evenodd"/><path fill="#ffffff" d="m426.34933 480.70312l65.60556 0l0 152.89716l-65.60556 0z" fill-rule="evenodd"/><path stroke="#ffffff" stroke-width="3.0" stroke-linejoin="round" stroke-linecap="butt" d="m426.34933 480.70312l65.60556 0l0 152.89716l-65.60556 0z" fill-rule="evenodd"/><path fill="#ffffff" d="m119.998245 297.37796l141.80388 0l0 336.22208l-141.80388 0z" fill-rule="evenodd"/><path stroke="#ffffff" stroke-width="3.0" stroke-linejoin="round" stroke-linecap="butt" d="m119.998245 297.37796l141.80388 0l0 336.22208l-141.80388 0z" fill-rule="evenodd"/><path fill="#ffffff" d="m448.09583 297.37796l151.90594 0l0 336.22208l-151.90594 0z" fill-rule="evenodd"/><path stroke="#ffffff" stroke-width="3.0" stroke-linejoin="round" stroke-linecap="butt" d="m448.09583 297.37796l151.90594 0l0 336.22208l-151.90594 0z" fill-rule="evenodd"/><path fill="#ffffff" d="m201.80487 511.11508l46.30104 -3.3782349l30.868973 -76.87775l71.76782 -35.48065l80.25836 14.360779l31.641052 79.41342l48.61731 29.566772l1.5417786 -186.70056l-318.71478 -10.982513z" fill-rule="evenodd"/><path stroke="#ffffff" stroke-width="3.0" stroke-linejoin="round" stroke-linecap="butt" d="m201.80487 511.11508l46.30104 -3.3782349l30.868973 -76.87775l71.76782 -35.48065l80.25836 14.360779l31.641052 79.41342l48.61731 29.566772l1.5417786 -186.70056l-318.71478 -10.982513z" fill-rule="evenodd"/><path fill="#ffffff" d="m133.12056 297.3782l461.49042 0l0 70.1134l-461.49042 0z" fill-rule="evenodd"/><path stroke="#ffffff" stroke-width="3.0" stroke-linejoin="round" stroke-linecap="butt" d="m133.12056 297.3782l461.49042 0l0 70.1134l-461.49042 0z" fill-rule="evenodd"/><path fill="#ffffff" d="m-0.00999685 336.2302l360.01575 -336.22046l360.01575 336.22046z" fill-rule="evenodd"/><path stroke="#ffffff" stroke-width="3.0" stroke-linejoin="round" stroke-linecap="butt" d="m-0.00999685 336.2302l360.01575 -336.22046l360.01575 336.22046z" fill-rule="evenodd"/></g></svg>