<svg version="1.1" viewBox="0.0 0.0 551.0393700787401 576.9606299212599" fill="none" stroke="none" stroke-linecap="square" stroke-miterlimit="10" xmlns:xlink="http://www.w3.org/1999/xlink" xmlns="http://www.w3.org/2000/svg"><clipPath id="p.0"><path d="m0 0l551.03937 0l0 576.96063l-551.03937 0l0 -576.96063z" clip-rule="nonzero"/></clipPath><g clip-path="url(#p.0)"><path fill="#000000" fill-opacity="0.0" d="m0 0l551.03937 0l0 576.96063l-551.03937 0z" fill-rule="evenodd"/><path fill="#ffffff" d="m327.8399 209.73622l0 0c0 42.7912 -23.372864 77.4803 -52.204742 77.4803c-28.831863 0 -52.204712 -34.689102 -52.204712 -77.4803l0 0c31.3452 32.56343 73.06424 32.56343 104.409454 0z" fill-rule="evenodd"/><path stroke="#ffffff" stroke-width="2.0" stroke-linejoin="round" stroke-linecap="butt" d="m327.8399 209.73622l0 0c0 42.7912 -23.372864 77.4803 -52.204742 77.4803c-28.831863 0 -52.204712 -34.689102 -52.204712 -77.4803l0 0c31.3452 32.56343 73.06424 32.56343 104.409454 0z" fill-rule="evenodd"/><path fill="#ffffff" d="m223.43045 288.04593l0 0c0 -28.831879 23.372849 -52.204727 52.204712 -52.204727l0 0l0 0c13.845551 0 27.124023 5.5001373 36.914337 15.290421c9.790283 9.790283 15.290405 23.068756 15.290405 36.914307l0 155.81104c0 28.831879 -23.372864 52.204712 -52.204742 52.204712l0 0l0 0c-28.831863 0 -52.204712 -23.372833 -52.204712 -52.204712z" fill-rule="evenodd"/><path stroke="#ffffff" stroke-width="2.0" stroke-linejoin="round" stroke-linecap="butt" d="m223.43045 288.04593l0 0c0 -28.831879 23.372849 -52.204727 52.204712 -52.204727l0 0l0 0c13.845551 0 27.124023 5.5001373 36.914337 15.290421c9.790283 9.790283 15.290405 23.068756 15.290405 36.914307l0 155.81104c0 28.831879 -23.372864 52.204712 -52.204742 52.204712l0 0l0 0c-28.831863 0 -52.204712 -23.372833 -52.204712 -52.204712z" fill-rule="evenodd"/><path fill="#ffffff" d="m223.43045 212.34647l2.015747 0l0 89.22836l-2.015747 0z" fill-rule="evenodd"/><path stroke="#ffffff" stroke-width="2.0" stroke-linejoin="round" stroke-linecap="butt" d="m223.43045 212.34647l2.015747 0l0 89.22836l-2.015747 0z" fill-rule="evenodd"/><path fill="#ffffff" d="m224.65355 229.29265l10.362198 0l0 50.14174l-10.362198 0z" fill-rule="evenodd"/><path stroke="#ffffff" stroke-width="2.0" stroke-linejoin="round" stroke-linecap="butt" d="m224.65355 229.29265l10.362198 0l0 50.14174l-10.362198 0z" fill-rule="evenodd"/><path fill="#ffffff" d="m327.8399 211.73097l-2.015747 0l0 90.20473l2.015747 0z" fill-rule="evenodd"/><path stroke="#ffffff" stroke-width="2.0" stroke-linejoin="round" stroke-linecap="butt" d="m327.8399 211.73097l-2.015747 0l0 90.20473l2.015747 0z" fill-rule="evenodd"/><path fill="#ffffff" d="m326.74277 229.29265l-13.007874 0l0 50.14174l13.007874 0z" fill-rule="evenodd"/><path stroke="#ffffff" stroke-width="2.0" stroke-linejoin="round" stroke-linecap="butt" d="m326.74277 229.29265l-13.007874 0l0 50.14174l13.007874 0z" fill-rule="evenodd"/><path fill="#ffffff" d="m223.3202 133.21391l0 0c0 -28.892754 23.42221 -52.314964 52.314957 -52.314964l0 0c13.874786 0 27.181305 5.5117416 36.99228 15.3227005c9.810944 9.810959 15.322693 23.11747 15.322693 36.992264l0 0c0 28.892746 -23.42221 52.314957 -52.314972 52.314957l0 0c-28.892746 0 -52.314957 -23.42221 -52.314957 -52.314957z" fill-rule="evenodd"/><path stroke="#ffffff" stroke-width="2.0" stroke-linejoin="round" stroke-linecap="butt" d="m223.3202 133.21391l0 0c0 -28.892754 23.42221 -52.314964 52.314957 -52.314964l0 0c13.874786 0 27.181305 5.5117416 36.99228 15.3227005c9.810944 9.810959 15.322693 23.11747 15.322693 36.992264l0 0c0 28.892746 -23.42221 52.314957 -52.314972 52.314957l0 0c-28.892746 0 -52.314957 -23.42221 -52.314957 -52.314957z" fill-rule="evenodd"/><path fill="#ffffff" d="m6.56168E-4 95.79462l0 0c0 -25.460777 10.114257 -49.878757 28.117748 -67.88225c18.003494 -18.003492 42.421467 -28.11775 67.88225 -28.11775l0 48.0c-26.509666 0 -48.0 21.49033 -48.0 47.999996z" fill-rule="evenodd"/><path stroke="#ffffff" stroke-width="2.0" stroke-linejoin="round" stroke-linecap="butt" d="m6.56168E-4 95.79462l0 0c0 -25.460777 10.114257 -49.878757 28.117748 -67.88225c18.003494 -18.003492 42.421467 -28.11775 67.88225 -28.11775l0 48.0c-26.509666 0 -48.0 21.49033 -48.0 47.999996z" fill-rule="evenodd"/><path fill="#ffffff" d="m95.320206 -0.20472442l360.56696 0l0 48.0l-360.56696 0z" fill-rule="evenodd"/><path stroke="#ffffff" stroke-width="2.0" stroke-linejoin="round" stroke-linecap="butt" d="m95.320206 -0.20472442l360.56696 0l0 48.0l-360.56696 0z" fill-rule="evenodd"/><path fill="#ffffff" d="m455.26968 -0.20669292l0 0c25.460785 0 49.878754 10.114257 67.88223 28.11775c18.00354 18.00349 28.117798 42.42147 28.117798 67.88225l-48.00003 0c0 -26.509666 -21.490326 -47.999996 -48.0 -47.999996z" fill-rule="evenodd"/><path stroke="#ffffff" stroke-width="2.0" stroke-linejoin="round" stroke-linecap="butt" d="m455.26968 -0.20669292l0 0c25.460785 0 49.878754 10.114257 67.88223 28.11775c18.00354 18.00349 28.117798 42.42147 28.117798 67.88225l-48.00003 0c0 -26.509666 -21.490326 -47.999996 -48.0 -47.999996z" fill-rule="evenodd"/><path fill="#ffffff" d="m551.2703 95.32284l0 387.8425l-47.99997 0l0 -387.8425z" fill-rule="evenodd"/><path stroke="#ffffff" stroke-width="2.0" stroke-linejoin="round" stroke-linecap="butt" d="m551.2703 95.32284l0 387.8425l-47.99997 0l0 -387.8425z" fill-rule="evenodd"/><path fill="#ffffff" d="m95.999344 577.166l0 0c-25.460785 0 -49.878757 -10.114258 -67.88225 -28.117737c-18.00349 -18.00354 -28.117748 -42.42148 -28.117748 -67.88226l48.0 0c0 26.509674 21.490334 48.0 48.0 48.0z" fill-rule="evenodd"/><path stroke="#ffffff" stroke-width="2.0" stroke-linejoin="round" stroke-linecap="butt" d="m95.999344 577.166l0 0c-25.460785 0 -49.878757 -10.114258 -67.88225 -28.117737c-18.00349 -18.00354 -28.117748 -42.42148 -28.117748 -67.88226l48.0 0c0 26.509674 21.490334 48.0 48.0 48.0z" fill-rule="evenodd"/><path fill="#ffffff" d="m0 482.5853l0 -387.2126l48.0 0l0 387.2126z" fill-rule="evenodd"/><path stroke="#ffffff" stroke-width="2.0" stroke-linejoin="round" stroke-linecap="butt" d="m0 482.5853l0 -387.2126l48.0 0l0 387.2126z" fill-rule="evenodd"/><path fill="#ffffff" d="m551.271 481.16733l0 0c0 25.460785 -10.114258 49.878754 -28.117737 67.88223c-18.00351 18.003479 -42.42148 28.117737 -67.88226 28.117737l0 -48.0c26.509674 0 48.0 -21.490295 48.0 -47.99997z" fill-rule="evenodd"/><path stroke="#ffffff" stroke-width="2.0" stroke-linejoin="round" stroke-linecap="butt" d="m551.271 481.16733l0 0c0 25.460785 -10.114258 49.878754 -28.117737 67.88223c-18.00351 18.003479 -42.42148 28.117737 -67.88226 28.117737l0 -48.0c26.509674 0 48.0 -21.490295 48.0 -47.99997z" fill-rule="evenodd"/><path fill="#ffffff" d="m455.95276 577.16797l-364.15747 0l0 -48.0l364.15747 0z" fill-rule="evenodd"/><path stroke="#ffffff" stroke-width="2.0" stroke-linejoin="round" stroke-linecap="butt" d="m455.95276 577.16797l-364.15747 0l0 -48.0l364.15747 0z" fill-rule="evenodd"/></g></svg>