<svg version="1.1" viewBox="0.0 0.0 256.32020997375326 496.32020997375326" fill="none" stroke="none" stroke-linecap="square" stroke-miterlimit="10" xmlns:xlink="http://www.w3.org/1999/xlink" xmlns="http://www.w3.org/2000/svg"><clipPath id="p.0"><path d="m0 0l256.32022 0l0 496.32022l-256.32022 0l0 -496.32022z" clip-rule="nonzero"/></clipPath><g clip-path="url(#p.0)"><path fill="#000000" fill-opacity="0.0" d="m0 0l256.32022 0l0 496.32022l-256.32022 0z" fill-rule="evenodd"/><path fill="#ffffff" d="m32.160107 96.16273l0 0c0 -53.019333 42.980663 -96.0 96.0 -96.0l0 0c25.460785 0 49.878754 10.114257 67.88225 28.11775c18.003494 18.00349 28.117752 42.42147 28.117752 67.88225l0 0c0 53.01934 -42.980667 96.00001 -96.0 96.00001l0 0c-53.01934 0 -96.0 -42.980667 -96.0 -96.00001z" fill-rule="evenodd"/><path fill="#ffffff" d="m209.0105 197.21523l0 0c0 60.690445 -36.197952 109.889755 -80.85039 109.889755c-44.652443 0 -80.8504 -49.19931 -80.8504 -109.889755l0 0c47.494823 50.509735 114.20596 50.509735 161.70079 0z" fill-rule="evenodd"/><path fill="#ffffff" d="m0.16010499 496.15747l37.069134 -242.51967l181.86172 0l37.069122 242.51967z" fill-rule="evenodd"/><path fill="#ffffff" d="m48.737473 198.98042l-3.0236206 -0.4409485l-11.716537 77.291336l3.0236244 0.4409485z" fill-rule="evenodd"/><path fill="#ffffff" d="m45.622047 199.30971l0 0c0 -1.1567535 0.60635376 -2.0944824 1.354332 -2.0944824l0 0c0.35918808 0 0.7036705 0.2206726 0.95765686 0.61346436c0.25398254 0.39279175 0.3966713 0.92552185 0.3966713 1.4810181l0 0c0 1.1567535 -0.60635376 2.0944977 -1.3543282 2.0944977l0 0c-0.7479782 0 -1.354332 -0.93774414 -1.354332 -2.0944977z" fill-rule="evenodd"/><path fill="#ffffff" d="m207.65611 198.98042l3.0236206 -0.4409485l11.716537 77.291336l-3.0236206 0.4409485z" fill-rule="evenodd"/><path fill="#ffffff" d="m210.77153 199.30971l0 0c0 -1.1567535 -0.60635376 -2.0944824 -1.3543243 -2.0944824l0 0c-0.3591919 0 -0.7036743 0.2206726 -0.95765686 0.61346436c-0.25398254 0.39279175 -0.39668274 0.92552185 -0.39668274 1.4810181l0 0c0 1.1567535 0.60635376 2.0944977 1.3543396 2.0944977l0 0c0.7479706 0 1.3543243 -0.93774414 1.3543243 -2.0944977z" fill-rule="evenodd"/><path fill="#ffffff" d="m47.322834 204.05774l-8.527557 52.10498l23.895012 -0.62991333z" fill-rule="evenodd"/><path fill="#ffffff" d="m208.90027 202.69029l-13.472443 52.737534l22.314957 -1.0524902z" fill-rule="evenodd"/></g></svg>